<svg
  width="53"
  height="54"
  viewBox="0 0 53 54"
  fill="none"
  xmlns="http://www.w3.org/2000/svg"
>
  <g filter="url(#filter0_d_2726_2041)">
    <path
      d="M35.4989 7.1875C35.4989 6.73995 35.6767 6.31072 35.9931 5.99426C36.3096 5.67779 36.7388 5.5 37.1864 5.5H42.8114C43.2589 5.5 43.6882 5.67779 44.0046 5.99426C44.3211 6.31072 44.4989 6.73995 44.4989 7.1875V12.8125C44.4989 13.2601 44.3211 13.6893 44.0046 14.0057C43.6882 14.3222 43.2589 14.5 42.8114 14.5C42.3638 14.5 41.9346 14.3222 41.6181 14.0057C41.3017 13.6893 41.1239 13.2601 41.1239 12.8125V11.26L31.0664 21.3175C30.75 21.6335 30.3211 21.811 29.8739 21.811C29.4267 21.811 28.9978 21.6335 28.6814 21.3175L23.1239 15.76L13.6289 25.255C13.4744 25.4208 13.2881 25.5538 13.0811 25.646C12.8741 25.7382 12.6506 25.7878 12.4241 25.7918C12.1975 25.7958 11.9724 25.7541 11.7623 25.6693C11.5522 25.5844 11.3613 25.4581 11.201 25.2978C11.0408 25.1376 10.9145 24.9467 10.8296 24.7366C10.7447 24.5265 10.7031 24.3014 10.707 24.0748C10.711 23.8482 10.7606 23.6248 10.8529 23.4178C10.9451 23.2108 11.0781 23.0245 11.2439 22.87L21.9314 12.1825C22.2478 11.8665 22.6767 11.689 23.1239 11.689C23.5711 11.689 24 11.8665 24.3164 12.1825L29.8739 17.74L38.7389 8.875H37.1864C36.7388 8.875 36.3096 8.69721 35.9931 8.38074C35.6767 8.06428 35.4989 7.63505 35.4989 7.1875ZM12.4364 32.5C12.8839 32.5 13.3132 32.6778 13.6296 32.9943C13.9461 33.3107 14.1239 33.7399 14.1239 34.1875V39.8125C14.1239 40.2601 13.9461 40.6893 13.6296 41.0057C13.3132 41.3222 12.8839 41.5 12.4364 41.5C11.9888 41.5 11.5596 41.3222 11.2431 41.0057C10.9267 40.6893 10.7489 40.2601 10.7489 39.8125V34.1875C10.7489 33.7399 10.9267 33.3107 11.2431 32.9943C11.5596 32.6778 11.9888 32.5 12.4364 32.5ZM23.1239 27.4375C23.1239 26.9899 22.9461 26.5607 22.6296 26.2443C22.3132 25.9278 21.8839 25.75 21.4364 25.75C20.9888 25.75 20.5596 25.9278 20.2431 26.2443C19.9267 26.5607 19.7489 26.9899 19.7489 27.4375V39.8125C19.7489 40.2601 19.9267 40.6893 20.2431 41.0057C20.5596 41.3222 20.9888 41.5 21.4364 41.5C21.8839 41.5 22.3132 41.3222 22.6296 41.0057C22.9461 40.6893 23.1239 40.2601 23.1239 39.8125V27.4375ZM30.4364 30.25C30.8839 30.25 31.3132 30.4278 31.6296 30.7443C31.9461 31.0607 32.1239 31.4899 32.1239 31.9375V39.8125C32.1239 40.2601 31.9461 40.6893 31.6296 41.0057C31.3132 41.3222 30.8839 41.5 30.4364 41.5C29.9888 41.5 29.5596 41.3222 29.2431 41.0057C28.9267 40.6893 28.7489 40.2601 28.7489 39.8125V31.9375C28.7489 31.4899 28.9267 31.0607 29.2431 30.7443C29.5596 30.4278 29.9888 30.25 30.4364 30.25ZM41.1239 22.9375C41.1239 22.4899 40.9461 22.0607 40.6296 21.7443C40.3132 21.4278 39.8839 21.25 39.4364 21.25C38.9888 21.25 38.5596 21.4278 38.2431 21.7443C37.9267 22.0607 37.7489 22.4899 37.7489 22.9375V39.8125C37.7489 40.2601 37.9267 40.6893 38.2431 41.0057C38.5596 41.3222 38.9888 41.5 39.4364 41.5C39.8839 41.5 40.3132 41.3222 40.6296 41.0057C40.9461 40.6893 41.1239 40.2601 41.1239 39.8125V22.9375Z" 
  />
  </g>
  <defs>
    <filter
      id="filter0_d_2726_2041"
      x="0"
      y="0"
      width="53"
      height="55"
      filterUnits="userSpaceOnUse"
      color-interpolation-filters="sRGB"
    >
      <feFlood
        flood-opacity="0"
        result="BackgroundImageFix"
      />
      <feColorMatrix
        in="SourceAlpha"
        type="matrix"
        values="0 0 0 0 0 0 0 0 0 0 0 0 0 0 0 0 0 0 127 0"
        result="hardAlpha"
      />
      <feOffset dy="4"/>
      <feGaussianBlur stdDeviation="2"/>
      <feComposite
        in2="hardAlpha"
        operator="out"
      />
      <feColorMatrix
        type="matrix"
        values="0 0 0 0 0 0 0 0 0 0 0 0 0 0 0 0 0 0 0.25 0"
      />
      <feBlend
        mode="normal"
        in2="BackgroundImageFix"
        result="effect1_dropShadow_2726_2041"
      />
      <feBlend
        mode="normal"
        in="SourceGraphic"
        in2="effect1_dropShadow_2726_2041"
        result="shape"
      />
    </filter>
  </defs>
</svg>
